<svg id="Layer_1" data-name="Layer 1" xmlns="http://www.w3.org/2000/svg" viewBox="0 0 116 50"><defs><style>.cls-1{fill:#fff;}</style></defs><title>alloy-logo</title><path class="cls-1" d="M41.66.63V37.58h-8.6V.63Z"/><path class="cls-1" d="M55.54.63V37.58H46.93V.63Z"/><path class="cls-1" d="M59.6,25.43a13.32,13.32,0,0,1,1.11-5.64,11.8,11.8,0,0,1,3-4,12.36,12.36,0,0,1,4.35-2.43,17.16,17.16,0,0,1,10.42,0,12.49,12.49,0,0,1,4.36,2.43,11.9,11.9,0,0,1,3,4,13.32,13.32,0,0,1,1.12,5.64,13.32,13.32,0,0,1-1.12,5.64,11.81,11.81,0,0,1-3,4,12.49,12.49,0,0,1-4.36,2.43,17.16,17.16,0,0,1-10.42,0A12.36,12.36,0,0,1,63.7,35.1a11.7,11.7,0,0,1-3-4A13.32,13.32,0,0,1,59.6,25.43Zm18.47,0a8.12,8.12,0,0,0-.25-2,4.87,4.87,0,0,0-.81-1.7,4.17,4.17,0,0,0-1.5-1.19,5.13,5.13,0,0,0-2.25-.45,5,5,0,0,0-2.23.45,4.51,4.51,0,0,0-1.49,1.19,4.43,4.43,0,0,0-.83,1.7,7.59,7.59,0,0,0,0,3.94A4.33,4.33,0,0,0,71,30.29a5,5,0,0,0,2.23.45,5.13,5.13,0,0,0,2.25-.45A4.07,4.07,0,0,0,77,29.1a4.78,4.78,0,0,0,.81-1.7A8.06,8.06,0,0,0,78.07,25.43Z"/><path class="cls-1" d="M107,13.28h8.86L105.67,40.11a21.16,21.16,0,0,1-2.33,4.53,11.85,11.85,0,0,1-2.7,2.83,9.67,9.67,0,0,1-3,1.47,11.44,11.44,0,0,1-3.11.43,13.15,13.15,0,0,1-2.28-.2c-.74-.14-1.47-.29-2.18-.46V41.63a14.41,14.41,0,0,0,3.29.4,4.8,4.8,0,0,0,2.91-.94,6.9,6.9,0,0,0,2.16-2.91L87,13.28h9.11L102,27.76Z"/><path class="cls-1" d="M20.15,13.28v3.29a8.7,8.7,0,0,0-2.94-2.78,9.94,9.94,0,0,0-5.31-1.27,11.44,11.44,0,0,0-5.27,1.14,11.07,11.07,0,0,0-3.67,3A12.09,12.09,0,0,0,.84,20.75a16.15,16.15,0,0,0,0,9.34A12.09,12.09,0,0,0,3,34.24a11.07,11.07,0,0,0,3.67,3,11.44,11.44,0,0,0,5.27,1.14,9.94,9.94,0,0,0,5.31-1.27,8.7,8.7,0,0,0,2.94-2.78v3.29h7.59V13.28Zm-1,14.25a5.88,5.88,0,0,1-.94,1.87,4.85,4.85,0,0,1-.92.89v0a3.71,3.71,0,0,1-.54.33l-.16.1a4.57,4.57,0,0,1-1.48.45h0a5.36,5.36,0,0,1-.82.06h0a5.46,5.46,0,0,1-.82-.06h0a4.63,4.63,0,0,1-1.49-.45l-.17-.11a2.8,2.8,0,0,1-.52-.32v0a4.62,4.62,0,0,1-.93-.89,5.65,5.65,0,0,1-.93-1.87,7.27,7.27,0,0,1,0-4.2,5.65,5.65,0,0,1,.93-1.87,4.62,4.62,0,0,1,.93-.89v0a4.23,4.23,0,0,1,.53-.33l.16-.1a4.63,4.63,0,0,1,1.49-.45h0a5.46,5.46,0,0,1,.82-.06h0a5.36,5.36,0,0,1,.82.06h0a4.63,4.63,0,0,1,1.49.45l.17.11a3.25,3.25,0,0,1,.53.32v0a4.85,4.85,0,0,1,.92.89,5.88,5.88,0,0,1,.94,1.87,7.5,7.5,0,0,1,0,4.2Z"/></svg>