<svg id="Layer_1" data-name="Layer 1" xmlns="http://www.w3.org/2000/svg" viewBox="0 0 380 46"><defs><style>.cls-1{fill:#fff;}</style></defs><title>chroma-logo copy</title><path class="cls-1" d="M39.82,27.86l12.06,6.36c-3.78,6.36-12.6,11.16-24.24,11.16C11.74,45.38.7,37.34.7,23S11.74.62,28.18.62C39.28.62,48,5.48,51.7,11.72L39.58,18C37,14,33,12.08,28,12.08c-7.44,0-12.48,4-12.48,10.92s5,10.92,12.48,10.92C33,33.92,37.06,32.12,39.82,27.86Z"/><path class="cls-1" d="M113.08,2V44H98.44V28.46h-22V44H61.78V2H76.42V16.94h22V2Z"/><path class="cls-1" d="M185.38,23c0-14.34,11.16-22.38,28-22.38s28,8,28,22.38-11.16,22.38-28,22.38S185.38,37.34,185.38,23Zm41.1,0c0-6.9-5-10.92-13.14-10.92S200.2,16.1,200.2,23s5,10.92,13.14,10.92S226.48,29.9,226.48,23Z"/><path class="cls-1" d="M312.34,2V44H297.88V19.34L282.64,38.12h-.72L266.74,19.34V44h-14.1V2h16l14,18.3L296.8,2Z"/><path class="cls-1" d="M356,27.26,350,14.3l-6.06,13-4.44,9.48L336,44H320.8L342.1,2H358l21.3,42H363.88l-3.42-7.26Z"/><path class="cls-1" d="M177.7,44,165.88,30.26c6.3-2.1,10.5-6.54,10.5-13.44,0-10-8.88-14.82-20.1-14.82H126.46V44H141V12.5h14.1c3.78,0,6.48,1.08,6.48,4.68s-2.7,4.68-6.48,4.68h-4.2v9.86L161,44Z"/></svg>