<svg id="Layer_1" data-name="Layer 1" xmlns="http://www.w3.org/2000/svg" viewBox="0 0 502 46"><defs><style>.cls-1{fill:#fff;}</style></defs><title>chroma-logo</title><path class="cls-1" d="M39.68,27.86l12.06,6.36C48,40.58,39.14,45.38,27.5,45.38,11.6,45.38.56,37.34.56,23S11.6.62,28,.62c11.1,0,19.86,4.86,23.52,11.1L39.44,18c-2.58-4-6.54-5.94-11.58-5.94-7.44,0-12.48,4-12.48,10.92s5,10.92,12.48,10.92C32.9,33.92,36.92,32.12,39.68,27.86Z"/><path class="cls-1" d="M112.94,2V44H98.3V28.46h-22V44H61.64V2H76.28V16.94h22V2Z"/><path class="cls-1" d="M185.24,23c0-14.34,11.16-22.38,28-22.38s28,8,28,22.38-11.15,22.38-28,22.38S185.24,37.34,185.24,23Zm41.1,0c0-6.9-5-10.92-13.14-10.92s-13.14,4-13.14,10.92,5,10.92,13.14,10.92S226.34,29.9,226.34,23Z"/><path class="cls-1" d="M312.2,2V44H297.73V19.34L282.5,38.12h-.72L266.6,19.34V44H252.5V2h16l14,18.3L296.65,2Z"/><path class="cls-1" d="M355.87,27.26l-6.06-13-6.05,13-4.44,9.48L335.9,44H320.66L342,2h15.91l21.29,42H363.73l-3.42-7.26Z"/><path class="cls-1" d="M177.55,44,165.74,30.26c6.29-2.1,10.49-6.54,10.49-13.44,0-10-8.87-14.82-20.09-14.82H126.32V44h14.52V12.5h14.1c3.78,0,6.48,1.08,6.48,4.68s-2.7,4.68-6.48,4.68h-4.2v9.86L160.87,44Z"/><path class="cls-1" d="M412.58,23C412.58,8.66,423,.62,439.34.62s26.82,8,26.82,22.38-10.44,22.38-26.82,22.38S412.58,37.34,412.58,23Zm38.76,0c0-7-4.44-10.92-11.94-10.92s-12,4-12,10.92,4.44,10.92,12,10.92S451.34,30,451.34,23Z"/><path class="cls-1" d="M486.8,16.46a36.65,36.65,0,0,1-12.3,4V9.26A33.13,33.13,0,0,0,490.4,2h11V44H486.8Z"/></svg>