<svg id="Layer_1" data-name="Layer 1" xmlns="http://www.w3.org/2000/svg" viewBox="0 0 54 54"><defs><style>.cls-1{fill:#fff;}</style></defs><title>facebook-icon</title><path class="cls-1" d="M53.22,16.13A19.5,19.5,0,0,0,52,9.72,13.47,13.47,0,0,0,44.28,2,19.5,19.5,0,0,0,37.87.78C35.06.66,34.16.63,27,.63s-8.06,0-10.87.15A19.5,19.5,0,0,0,9.72,2,13.47,13.47,0,0,0,2,9.72,19.5,19.5,0,0,0,.78,16.13C.66,18.94.63,19.84.63,27s0,8.06.15,10.87A19.5,19.5,0,0,0,2,44.28,13.47,13.47,0,0,0,9.72,52a19.5,19.5,0,0,0,6.41,1.23c2.81.12.65.15,7.81.15h1.81V33H18.89V25h6.85V19.12C25.74,12.3,29.9,8.59,36,8.59a60.35,60.35,0,0,1,6.16.31V16h-4.2C34.63,16,34,17.59,34,19.9V25h7.9l-1,8H34V53.25l.83,0c2.8-.13,7.78-.58,9.46-1.23A13.47,13.47,0,0,0,52,44.28a19.5,19.5,0,0,0,1.23-6.41c.12-2.81.15-3.71.15-10.87S53.34,18.94,53.22,16.13Z"/></svg>