<svg id="Layer_1" data-name="Layer 1" xmlns="http://www.w3.org/2000/svg" viewBox="0 0 54 54"><defs><style>.cls-1{fill:#fff;}</style></defs><title>instagram-icon</title><path class="cls-1" d="M27,17.4A9.6,9.6,0,1,0,36.6,27,9.62,9.62,0,0,0,27,17.4Z"/><path class="cls-1" d="M53.22,16.13A19.5,19.5,0,0,0,52,9.72,13.47,13.47,0,0,0,44.28,2,19.5,19.5,0,0,0,37.87.78C35.06.66,34.16.63,27,.63s-8.06,0-10.87.15A19.5,19.5,0,0,0,9.72,2,13.47,13.47,0,0,0,2,9.72,19.5,19.5,0,0,0,.78,16.13C.66,18.94.63,19.84.63,27s0,8.06.15,10.87A19.5,19.5,0,0,0,2,44.28,13.47,13.47,0,0,0,9.72,52a19.5,19.5,0,0,0,6.41,1.23c2.81.12,3.71.15,10.87.15s8.06,0,10.87-.15A19.5,19.5,0,0,0,44.28,52,13.47,13.47,0,0,0,52,44.28a19.5,19.5,0,0,0,1.23-6.41c.12-2.81.15-3.71.15-10.87S53.34,18.94,53.22,16.13ZM27,42A15,15,0,1,1,42,27,15,15,0,0,1,27,42ZM43,14.57a3.71,3.71,0,1,1,3.71-3.7A3.71,3.71,0,0,1,43,14.57Z"/></svg>